<mxfile host="app.diagrams.net" agent="Mozilla/5.0 (Windows NT 10.0; Win64; x64) AppleWebKit/537.36 (KHTML, like Gecko) Chrome/130.0.0.0 Safari/537.36 Edg/130.0.0.0" version="24.8.6" pages="2">
  <diagram name="Página-1" id="rtRxg53sx6VQpZ_SJ7Nv">
    <mxGraphModel dx="1771" dy="1209" grid="1" gridSize="10" guides="1" tooltips="1" connect="1" arrows="1" fold="1" page="1" pageScale="1" pageWidth="1600" pageHeight="1200" math="0" shadow="0">
      <root>
        <mxCell id="0" />
        <mxCell id="1" parent="0" />
        <mxCell id="AKEeh42Q9ZCv7pw7sYJD-1" value="&lt;font style=&quot;font-size: 36px;&quot;&gt;Visualizar recomendaciones&lt;/font&gt;" style="text;html=1;align=center;verticalAlign=middle;whiteSpace=wrap;rounded=0;" vertex="1" parent="1">
          <mxGeometry x="620" y="140" width="440" height="30" as="geometry" />
        </mxCell>
        <mxCell id="AKEeh42Q9ZCv7pw7sYJD-2" value="" style="rounded=0;whiteSpace=wrap;html=1;rotation=-90;" vertex="1" parent="1">
          <mxGeometry x="485" y="245" width="710" height="640" as="geometry" />
        </mxCell>
        <mxCell id="AKEeh42Q9ZCv7pw7sYJD-3" style="rounded=0;orthogonalLoop=1;jettySize=auto;html=1;entryX=0;entryY=0.5;entryDx=0;entryDy=0;" edge="1" parent="1" source="AKEeh42Q9ZCv7pw7sYJD-4" target="AKEeh42Q9ZCv7pw7sYJD-5">
          <mxGeometry relative="1" as="geometry" />
        </mxCell>
        <mxCell id="AKEeh42Q9ZCv7pw7sYJD-4" value="&lt;font style=&quot;font-size: 16px;&quot;&gt;Usuario&lt;/font&gt;" style="shape=umlActor;verticalLabelPosition=bottom;verticalAlign=top;html=1;outlineConnect=0;" vertex="1" parent="1">
          <mxGeometry x="310" y="450" width="130" height="210" as="geometry" />
        </mxCell>
        <mxCell id="AKEeh42Q9ZCv7pw7sYJD-5" value="&lt;font style=&quot;font-size: 14px;&quot;&gt;Visualizar recomendaciones&lt;/font&gt;" style="ellipse;whiteSpace=wrap;html=1;" vertex="1" parent="1">
          <mxGeometry x="550" y="510" width="150" height="90" as="geometry" />
        </mxCell>
        <mxCell id="AKEeh42Q9ZCv7pw7sYJD-6" value="&lt;font style=&quot;font-size: 14px;&quot;&gt;Generar recomendaciones&lt;/font&gt;" style="ellipse;whiteSpace=wrap;html=1;" vertex="1" parent="1">
          <mxGeometry x="540" y="230" width="150" height="90" as="geometry" />
        </mxCell>
        <mxCell id="AKEeh42Q9ZCv7pw7sYJD-7" value="" style="endArrow=classic;dashed=1;html=1;rounded=0;entryX=0.5;entryY=1;entryDx=0;entryDy=0;exitX=0.5;exitY=0;exitDx=0;exitDy=0;endFill=1;" edge="1" parent="1" source="AKEeh42Q9ZCv7pw7sYJD-5" target="AKEeh42Q9ZCv7pw7sYJD-6">
          <mxGeometry width="50" height="50" relative="1" as="geometry">
            <mxPoint x="690" y="490" as="sourcePoint" />
            <mxPoint x="740" y="440" as="targetPoint" />
          </mxGeometry>
        </mxCell>
        <mxCell id="AKEeh42Q9ZCv7pw7sYJD-8" value="&amp;lt;&amp;lt;include&amp;gt;&amp;gt;" style="edgeLabel;html=1;align=center;verticalAlign=middle;resizable=0;points=[];" vertex="1" connectable="0" parent="AKEeh42Q9ZCv7pw7sYJD-7">
          <mxGeometry x="-0.0088" y="-3" relative="1" as="geometry">
            <mxPoint as="offset" />
          </mxGeometry>
        </mxCell>
        <mxCell id="AKEeh42Q9ZCv7pw7sYJD-9" value="&lt;font style=&quot;font-size: 14px;&quot;&gt;Seleccionar tipo de reporte&lt;/font&gt;" style="ellipse;whiteSpace=wrap;html=1;" vertex="1" parent="1">
          <mxGeometry x="770" y="360" width="150" height="90" as="geometry" />
        </mxCell>
        <mxCell id="AKEeh42Q9ZCv7pw7sYJD-12" value="&lt;font style=&quot;font-size: 14px;&quot;&gt;Generar reporte gráfico&lt;/font&gt;" style="ellipse;whiteSpace=wrap;html=1;" vertex="1" parent="1">
          <mxGeometry x="800" y="480" width="180" height="90" as="geometry" />
        </mxCell>
        <mxCell id="AKEeh42Q9ZCv7pw7sYJD-15" value="&lt;font style=&quot;font-size: 14px;&quot;&gt;Analizar historia de gastos&lt;/font&gt;" style="ellipse;whiteSpace=wrap;html=1;" vertex="1" parent="1">
          <mxGeometry x="950" y="220" width="180" height="90" as="geometry" />
        </mxCell>
        <mxCell id="AKEeh42Q9ZCv7pw7sYJD-16" value="" style="endArrow=classic;dashed=1;html=1;rounded=0;entryX=0;entryY=0.5;entryDx=0;entryDy=0;exitX=1;exitY=0.5;exitDx=0;exitDy=0;endFill=1;" edge="1" parent="1" source="AKEeh42Q9ZCv7pw7sYJD-6" target="AKEeh42Q9ZCv7pw7sYJD-15">
          <mxGeometry width="50" height="50" relative="1" as="geometry">
            <mxPoint x="945" y="450" as="sourcePoint" />
            <mxPoint x="1060" y="380" as="targetPoint" />
          </mxGeometry>
        </mxCell>
        <mxCell id="AKEeh42Q9ZCv7pw7sYJD-17" value="&amp;lt;&amp;lt;include&amp;gt;&amp;gt;" style="edgeLabel;html=1;align=center;verticalAlign=middle;resizable=0;points=[];" vertex="1" connectable="0" parent="AKEeh42Q9ZCv7pw7sYJD-16">
          <mxGeometry x="-0.0088" y="-3" relative="1" as="geometry">
            <mxPoint as="offset" />
          </mxGeometry>
        </mxCell>
        <mxCell id="AKEeh42Q9ZCv7pw7sYJD-18" value="&lt;font style=&quot;font-size: 14px;&quot;&gt;Seleccionar tipo de gráfico&lt;/font&gt;" style="ellipse;whiteSpace=wrap;html=1;" vertex="1" parent="1">
          <mxGeometry x="950" y="330" width="150" height="90" as="geometry" />
        </mxCell>
        <mxCell id="AKEeh42Q9ZCv7pw7sYJD-19" value="" style="endArrow=classic;dashed=1;html=1;rounded=0;entryX=0;entryY=1;entryDx=0;entryDy=0;exitX=0.5;exitY=0;exitDx=0;exitDy=0;endFill=1;" edge="1" parent="1" source="AKEeh42Q9ZCv7pw7sYJD-12" target="AKEeh42Q9ZCv7pw7sYJD-18">
          <mxGeometry width="50" height="50" relative="1" as="geometry">
            <mxPoint x="900" y="480" as="sourcePoint" />
            <mxPoint x="1150" y="460" as="targetPoint" />
          </mxGeometry>
        </mxCell>
        <mxCell id="AKEeh42Q9ZCv7pw7sYJD-20" value="&amp;lt;&amp;lt;include&amp;gt;&amp;gt;" style="edgeLabel;html=1;align=center;verticalAlign=middle;resizable=0;points=[];" vertex="1" connectable="0" parent="AKEeh42Q9ZCv7pw7sYJD-19">
          <mxGeometry x="-0.0088" y="-3" relative="1" as="geometry">
            <mxPoint as="offset" />
          </mxGeometry>
        </mxCell>
      </root>
    </mxGraphModel>
  </diagram>
  <diagram id="X73ZdBlzjIyUlympZ7Vo" name="Página-2">
    <mxGraphModel dx="2164" dy="1478" grid="1" gridSize="10" guides="1" tooltips="1" connect="1" arrows="1" fold="1" page="1" pageScale="1" pageWidth="1600" pageHeight="1200" math="0" shadow="0">
      <root>
        <mxCell id="0" />
        <mxCell id="1" parent="0" />
        <mxCell id="o9CrfNAr_sOlfcnmFOnQ-1" value="&lt;span style=&quot;font-size: 24px;&quot;&gt;Explicación de los casos de uso:&lt;/span&gt;&lt;div style=&quot;&quot;&gt;&lt;ol style=&quot;&quot;&gt;&lt;li style=&quot;font-size: 24px;&quot;&gt;&lt;span style=&quot;font-size: 24px;&quot;&gt;&lt;b style=&quot;font-size: 24px;&quot;&gt;Visualizar recomendaciones: &lt;/b&gt;&lt;span style=&quot;font-size: 24px;&quot;&gt;Permite al usuario ver sugerencias personalizadas para mejorar sus hábitos financieros.&lt;/span&gt;&lt;/span&gt;&lt;/li&gt;&lt;ol style=&quot;font-size: 24px;&quot;&gt;&lt;li style=&quot;font-size: 24px;&quot;&gt;&lt;span style=&quot;font-size: 24px;&quot;&gt;&lt;span style=&quot;font-size: 24px;&quot;&gt;&lt;b&gt;Relación &amp;lt;&amp;lt;include&amp;gt;&amp;gt;&amp;nbsp;&lt;/b&gt;&amp;nbsp;&lt;b&gt;&#39;Generar Recomendaciones&#39;: &lt;/b&gt;Es indispensable generar las recomendaciones antes de poder visualizarlas, ya que estas dependen del análisis de datos del usuario.&lt;/span&gt;&lt;/span&gt;&lt;/li&gt;&lt;/ol&gt;&lt;li style=&quot;&quot;&gt;&lt;b&gt;Generar recomendaciones: &lt;/b&gt;Proceso que analiza datos históricos y clasifica patrones para sugerir mejoras en el manejo de gastos.&lt;/li&gt;&lt;ol&gt;&lt;li style=&quot;&quot;&gt;&lt;b&gt;Relación &amp;lt;&amp;lt;include&amp;gt;&amp;gt; &#39;Analizar historial de gastos&#39;: &lt;/b&gt;En análisis del historial es fundamental para detectar tendencias y generar sugerencias precisas.&lt;/li&gt;&lt;li style=&quot;&quot;&gt;&lt;b&gt;Relación &amp;lt;&amp;lt;include&amp;gt;&amp;gt; &#39;Clasificar patrones de gasto&#39;: &lt;/b&gt;Organiza los datos identificando comportamientos y categorías clave.&lt;/li&gt;&lt;li style=&quot;&quot;&gt;&lt;b&gt;Relación &amp;lt;&amp;lt;include&amp;gt;&amp;gt; &#39;Identificar áreas de mejora&#39;: &lt;/b&gt;Permite ofrecer sugerencias basadas en los patrones identificados y posibles limitaciones.&lt;/li&gt;&lt;/ol&gt;&lt;li&gt;&lt;b&gt;Analizar historial de gastos: &lt;/b&gt;Revisa y verifica los datos históricos del usuario para detectar tendencias de gasto.&lt;/li&gt;&lt;ol&gt;&lt;li&gt;&lt;b&gt;Relación &amp;lt;&amp;lt;include&amp;gt;&amp;gt; &#39;Verificar datos históricos&#39;: &lt;/b&gt;Garantiza que los datos utilizados en el análisis son correctos y están completos.&lt;/li&gt;&lt;li&gt;&lt;b&gt;Relación &amp;lt;&amp;lt;include&amp;gt;&amp;gt; &#39;Detectar tendencias recurrentes&#39;: &lt;/b&gt;Busca patrones repetitivos en los gastos para establecer bases sólidas para las recomendaciones.&lt;/li&gt;&lt;/ol&gt;&lt;li&gt;&lt;b&gt;Clasificar patrones de gasto: &lt;/b&gt;Ordena y categoriza los gastos para facilitar el análisis y la generación de recomendaciones.&lt;/li&gt;&lt;ol&gt;&lt;li&gt;&lt;b&gt;Relación &amp;lt;&amp;lt;include&amp;gt;&amp;gt; &#39;Reconocer categorías principales&#39;: &lt;/b&gt;Identifica las categorías en las que el usuario gasta más (como alimentación, transporte, entretenimiento, etc.)&lt;/li&gt;&lt;li&gt;&lt;b&gt;Relación &amp;lt;&amp;lt;extend&amp;gt;&amp;gt; &#39;Personalizar categorías de gasto&#39;: &lt;/b&gt;Si el usuario tiene necesidades específicas, puede agregar o modificar categorías personalizadas para mejorar el análisis.{&lt;/li&gt;&lt;/ol&gt;&lt;li&gt;&lt;b&gt;Identificar áreas de mejora: &lt;/b&gt;Sugiere posibles ajustes en los hábitos de gasto del usuario basándose en los patrones detectados.&lt;/li&gt;&lt;ol&gt;&lt;li&gt;&lt;b&gt;Relación &amp;lt;&amp;lt;include&amp;gt;&amp;gt; &#39;Comprar con presupuestos predefinidos&#39;: &lt;/b&gt;Compara los gastos actuales del usuario con presupuestos ideales o sugeridos para determinar desviaciones.&lt;/li&gt;&lt;li&gt;&lt;b&gt;Relación &amp;lt;&amp;lt;include&amp;gt;&amp;gt; &#39;Sugerir límites en categorías específicas&#39;: &lt;/b&gt;Propone límites claros en categorías donde se exceden los gastos para fomentar un mejor control financiero.&lt;/li&gt;&lt;/ol&gt;&lt;/ol&gt;&lt;/div&gt;" style="rounded=0;whiteSpace=wrap;html=1;align=left;fontSize=24;" vertex="1" parent="1">
          <mxGeometry x="174" y="110" width="1252" height="980" as="geometry" />
        </mxCell>
      </root>
    </mxGraphModel>
  </diagram>
</mxfile>
